<svg width="77" height="50" viewBox="0 0 77 50" fill="none" xmlns="http://www.w3.org/2000/svg">
<path d="M36.1804 34.6455C39.5617 32.3994 42.1301 29.1244 43.5055 25.3051C44.8808 21.4858 44.99 17.3252 43.8169 13.4391C42.6438 9.55289 40.2508 6.14765 36.9919 3.72727C33.733 1.30689 29.7815 0 25.7222 0C21.6628 0 17.7113 1.30689 14.4524 3.72727C11.1935 6.14765 8.80048 9.55289 7.62738 13.4391C6.45429 17.3252 6.5635 21.4858 7.93885 25.3051C9.3142 29.1244 11.8826 32.3994 15.264 34.6455C9.49985 36.7717 4.518 40.5995 0.978737 45.6214C0.785649 45.8919 0.647971 46.1979 0.573628 46.5218C0.499285 46.8458 0.489745 47.1812 0.545557 47.5088C0.60137 47.8364 0.721432 48.1498 0.898833 48.4308C1.07623 48.7119 1.30747 48.955 1.57923 49.1463C1.85099 49.3376 2.1579 49.4733 2.4823 49.5455C2.8067 49.6177 3.14219 49.6251 3.46944 49.5671C3.79669 49.5092 4.10924 49.3871 4.38911 49.2078C4.66897 49.0286 4.91062 48.7957 5.10015 48.5227C7.42596 45.2141 10.5138 42.5136 14.1028 40.6493C17.6919 38.7851 21.6768 37.8118 25.7212 37.8117C29.7656 37.8116 33.7506 38.7846 37.3397 40.6486C40.9289 42.5126 44.0169 45.2129 46.3429 48.5215C46.5333 48.7925 46.7752 49.0233 47.0549 49.2008C47.3345 49.3782 47.6464 49.4988 47.9727 49.5556C48.2989 49.6125 48.6332 49.6044 48.9564 49.532C49.2796 49.4595 49.5853 49.3241 49.8561 49.1334C50.1269 48.9427 50.3574 48.7005 50.5346 48.4207C50.7117 48.1408 50.8319 47.8288 50.8884 47.5025C50.9448 47.1761 50.9364 46.8418 50.8636 46.5187C50.7908 46.1957 50.655 45.8901 50.464 45.6195C46.9249 40.5985 41.9437 36.7713 36.1804 34.6452V34.6455ZM11.8611 18.9108C11.8611 16.1694 12.674 13.4896 14.1971 11.2101C15.7201 8.93074 17.8849 7.15415 20.4177 6.10506C22.9504 5.05596 25.7374 4.78147 28.4261 5.31629C31.1149 5.85112 33.5846 7.17124 35.5231 9.10972C37.4616 11.0482 38.7817 13.518 39.3166 16.2067C39.8514 18.8955 39.5769 21.6824 38.5278 24.2152C37.4787 26.7479 35.7021 28.9127 33.4227 30.4357C31.1433 31.9588 28.4634 32.7717 25.722 32.7717C22.0471 32.7676 18.524 31.3059 15.9255 28.7074C13.327 26.1089 11.8653 22.5857 11.8611 18.9108ZM75.5355 49.1314C75.2649 49.3219 74.9594 49.4574 74.6365 49.5299C74.3136 49.6024 73.9796 49.6106 73.6535 49.554C73.3274 49.4974 73.0156 49.3771 72.7361 49.2C72.4565 49.0229 72.2145 48.7924 72.024 48.5218C69.6952 45.2162 66.6068 42.5182 63.0184 40.6545C59.43 38.7908 55.4466 37.816 51.4031 37.8121C50.7347 37.8121 50.0937 37.5465 49.621 37.0739C49.1484 36.6013 48.8829 35.9603 48.8829 35.2919C48.8829 34.6235 49.1484 33.9825 49.621 33.5099C50.0937 33.0372 50.7347 32.7717 51.4031 32.7717C53.3824 32.7695 55.3383 32.3434 57.1392 31.5221C58.9401 30.7007 60.5442 29.5032 61.8435 28.0101C63.1429 26.517 64.1074 24.7629 64.6722 22.8658C65.237 20.9688 65.3889 18.9728 65.1177 17.0121C64.8466 15.0514 64.1587 13.1716 63.1003 11.499C62.0418 9.8264 60.6375 8.3999 58.9817 7.31546C57.3258 6.23102 55.457 5.51378 53.5008 5.21201C51.5446 4.91024 49.5464 5.03093 47.6408 5.56596C46.9983 5.74416 46.3113 5.66046 45.7304 5.33321C45.1494 5.00596 44.7219 4.46182 44.5413 3.81996C44.3607 3.17811 44.4419 2.49085 44.767 1.9087C45.0921 1.32655 45.6346 0.896967 46.2758 0.714022C50.6111 -0.509142 55.2407 -0.143517 59.3303 1.745C63.4199 3.63351 66.7004 6.9207 68.5805 11.0141C70.4607 15.1075 70.8169 19.7379 69.5849 24.0707C68.3529 28.4035 65.6137 32.1537 61.8611 34.6455C67.6246 36.7715 72.6059 40.5987 76.1451 45.6198C76.5299 46.1663 76.6819 46.8433 76.5676 47.5018C76.4532 48.1604 76.082 48.7465 75.5355 49.1314Z" fill="black"/>
</svg>
