<svg width="150" height="150" viewBox="0 0 150 150" fill="none" xmlns="http://www.w3.org/2000/svg">
<rect width="150" height="150" rx="75" fill="#F3F3F3"/>
<path d="M116.424 110C110.472 99.7457 100.944 92.0497 89.6681 88.3871C95.0731 85.173 99.2734 80.2732 101.624 74.4405C103.974 68.6077 104.344 62.1646 102.678 56.1011C101.011 50.0375 97.3995 44.6888 92.3982 40.8767C87.397 37.0646 81.2824 35 74.994 35C68.7055 35 62.591 37.0646 57.5897 40.8767C52.5885 44.6888 48.9771 50.0375 47.3104 56.1011C45.6438 62.1646 46.014 68.6077 48.3643 74.4405C50.7146 80.2732 54.9148 85.173 60.3199 88.3871C49.0435 92.0497 39.5158 99.7457 33.5635 110C33.3139 110.362 33.1418 110.772 33.0582 111.204C32.9745 111.635 32.9811 112.08 33.0776 112.509C33.174 112.938 33.3581 113.343 33.6184 113.698C33.8787 114.052 34.2096 114.349 34.5901 114.57C34.9707 114.79 35.3928 114.93 35.8299 114.98C36.267 115.029 36.7096 114.988 37.13 114.858C37.5504 114.729 37.9394 114.514 38.2726 114.226C38.6058 113.939 38.8761 113.586 39.0663 113.19C42.7124 106.889 47.9513 101.658 54.2572 98.0219C60.5632 94.3854 67.7146 92.4712 74.994 92.4712C82.2733 92.4712 89.4247 94.3854 95.7307 98.0219C102.037 101.658 107.276 106.889 110.922 113.19C111.112 113.586 111.382 113.939 111.715 114.226C112.049 114.514 112.438 114.729 112.858 114.858C113.278 114.988 113.721 115.029 114.158 114.98C114.595 114.93 115.017 114.79 115.398 114.57C115.778 114.349 116.109 114.052 116.37 113.698C116.63 113.343 116.814 112.938 116.91 112.509C117.007 112.08 117.013 111.635 116.93 111.204C116.846 110.772 116.674 110.362 116.424 110ZM52.6638 63.7441C52.6638 59.3277 53.9734 55.0103 56.4271 51.3382C58.8808 47.666 62.3683 44.8039 66.4486 43.1138C70.5289 41.4236 75.0188 40.9814 79.3504 41.843C83.682 42.7046 87.6609 44.8314 90.7838 47.9543C93.9067 51.0773 96.0335 55.0561 96.8951 59.3877C97.7567 63.7194 97.3145 68.2092 95.6244 72.2895C93.9343 76.3698 91.0721 79.8573 87.4 82.311C83.7278 84.7647 79.4105 86.0743 74.994 86.0743C69.0716 86.0743 63.3919 83.7217 59.2042 79.534C55.0164 75.3462 52.6638 69.6665 52.6638 63.7441Z" fill="#787878"/>
</svg>
