<?xml version="1.0" encoding="UTF-8" standalone="no"?>
<svg
   width="62.384399"
   height="25.4"
   viewBox="0 0 62.384399 25.4"
   version="1.1"
   id="svg4"
   sodipodi:docname="bitrix24Logo — копия.svg"
   inkscape:version="1.3.2 (091e20e, 2023-11-25, custom)"
   xmlns:inkscape="http://www.inkscape.org/namespaces/inkscape"
   xmlns:sodipodi="http://sodipodi.sourceforge.net/DTD/sodipodi-0.dtd"
   xmlns="http://www.w3.org/2000/svg"
   xmlns:svg="http://www.w3.org/2000/svg">
  <defs
     id="defs4">
    <rect
       x="5.0171528"
       y="-18.730703"
       width="362.07117"
       height="114.72556"
       id="rect4" />
  </defs>
  <sodipodi:namedview
     id="namedview4"
     pagecolor="#505050"
     bordercolor="#ffffff"
     borderopacity="1"
     inkscape:showpageshadow="0"
     inkscape:pageopacity="0"
     inkscape:pagecheckerboard="1"
     inkscape:deskcolor="#505050"
     inkscape:zoom="5.9794872"
     inkscape:cx="81.779588"
     inkscape:cy="18.647084"
     inkscape:window-width="2560"
     inkscape:window-height="1377"
     inkscape:window-x="1912"
     inkscape:window-y="-8"
     inkscape:window-maximized="1"
     inkscape:current-layer="bitrix24-logo-ru" />
  <g
     id="Canvas"
     fill="none">
    <g
       id="bitrix24-logo-ru">
      <g
         id="Group"
         transform="translate(-132.5)">
        <g
           id="Vector">
          <path
             d="M 0,25.4 H 17.6 V 21.5 H 6 C 7.6,15.1 17.4,13.7 17.4,6.6 17.4,2.8 14.8,0 9.3,0 5.9,0 2.89999,1 0.899994,2 L 2.10001,5.6 c 1.8,-0.9 3.9,-1.7 6.5,-1.7 C 10.6,3.9 12.5,4.8 12.5,7.1 12.5,12.3 1,12.7 0,25.4 Z m 18.1,-6.2 h 11.3 v 6.2 h 4.5 v -6.2 h 3.8 V 15.4 H 33.9 V 0 H 30.6 L 18.1,16.2 Z M 23.2,15.6 29.6,7 c 0,0.7 -0.2,2.9 -0.2,4.9 v 3.6 h -3 c -0.9,0 -2.6,0.1 -3.2,0.1 z"
             transform="translate(132.5)"
             fill="#005893"
             id="path1" />
        </g>
        <g
           id="Vector_2" />
        <g
           id="Vector_3">
          <path
             d="M 8.90001,17.8 C 13.8,17.8 17.8,13.8 17.8,8.9 17.8,4 13.8,9.53674e-8 8.90001,9.53674e-8 4.00001,9.53674e-8 -3.05176e-6,4 -3.05176e-6,8.9 0.0999969,13.8 4.00001,17.8 8.90001,17.8 Z"
             stroke-width="1.7688"
             transform="translate(176.2,1.39999)"
             stroke="#005893"
             id="path3" />
        </g>
        <g
           id="Vector_4">
          <path
             d="M 6.2,4.9 H 1.3 V 9.53674e-8 H 0 V 6.2 h 6.2 z"
             transform="translate(184.5,5.39999)"
             fill="#005893"
             id="path4" />
        </g>
      </g>
    </g>
  </g>
</svg>
