<svg width="22" height="22" viewBox="0 0 22 22" fill="none" xmlns="http://www.w3.org/2000/svg">
<g clip-path="url(#clip0_2424_237090)">
<g clip-path="url(#clip1_2424_237090)">
<path d="M21.1355 13.7954L19.5272 12.4204C19.6033 11.9539 19.6426 11.4776 19.6426 11.0012C19.6426 10.5249 19.6033 10.0485 19.5272 9.58203L21.1355 8.20703C21.2568 8.10319 21.3436 7.96487 21.3844 7.81049C21.4252 7.6561 21.418 7.49296 21.3638 7.34275L21.3417 7.27891C20.8989 6.04147 20.236 4.89435 19.3848 3.89297L19.3406 3.84141C19.2373 3.71999 19.0997 3.63272 18.9459 3.59108C18.792 3.54944 18.6292 3.55539 18.4788 3.60815L16.4825 4.31775C15.7459 3.71373 14.9234 3.23739 14.0346 2.90346L13.6491 0.816406C13.62 0.659367 13.5438 0.514894 13.4307 0.402182C13.3175 0.28947 13.1727 0.213854 13.0156 0.185379L12.9493 0.173103C11.67 -0.0577009 10.3245 -0.0577009 9.04527 0.173103L8.97898 0.185379C8.82183 0.213854 8.67706 0.28947 8.56391 0.402182C8.45076 0.514894 8.37458 0.659367 8.3455 0.816406L7.95755 2.91328C7.0758 3.24728 6.25468 3.72337 5.52675 4.32266L3.51581 3.60815C3.36546 3.55497 3.20248 3.5488 3.04854 3.59047C2.8946 3.63213 2.75698 3.71966 2.65398 3.84141L2.60978 3.89297C1.7596 4.89506 1.09673 6.04199 0.652861 7.27891L0.630763 7.34275C0.520272 7.64967 0.61112 7.99342 0.859111 8.20703L2.48701 9.59676C2.4109 10.0584 2.37407 10.5298 2.37407 10.9988C2.37407 11.4702 2.4109 11.9416 2.48701 12.4008L0.859111 13.7905C0.737806 13.8944 0.650987 14.0327 0.610197 14.1871C0.569408 14.3414 0.576581 14.5046 0.630763 14.6548L0.652861 14.7186C1.09728 15.9561 1.75532 17.0979 2.60978 18.1046L2.65398 18.1561C2.75724 18.2776 2.89486 18.3648 3.04871 18.4065C3.20255 18.4481 3.36541 18.4422 3.51581 18.3894L5.52675 17.6749C6.25844 18.2765 7.07608 18.7528 7.95755 19.0843L8.3455 21.1811C8.37458 21.3382 8.45076 21.4827 8.56391 21.5954C8.67706 21.7081 8.82183 21.7837 8.97898 21.8122L9.04527 21.8244C10.3363 22.0565 11.6583 22.0565 12.9493 21.8244L13.0156 21.8122C13.1727 21.7837 13.3175 21.7081 13.4307 21.5954C13.5438 21.4827 13.62 21.3382 13.6491 21.1811L14.0346 19.0941C14.923 18.761 15.7502 18.2831 16.4825 17.6798L18.4788 18.3894C18.6291 18.4426 18.7921 18.4487 18.946 18.4071C19.1 18.3654 19.2376 18.2779 19.3406 18.1561L19.3848 18.1046C20.2392 17.0954 20.8973 15.9561 21.3417 14.7186L21.3638 14.6548C21.4743 14.3528 21.3834 14.009 21.1355 13.7954V13.7954ZM17.7839 9.87176C17.8453 10.2425 17.8772 10.6231 17.8772 11.0037C17.8772 11.3843 17.8453 11.7648 17.7839 12.1356L17.6218 13.1202L19.456 14.6892C19.1779 15.3298 18.827 15.9361 18.41 16.4963L16.1314 15.6885L15.3605 16.322C14.7736 16.8032 14.1205 17.1814 13.4134 17.4465L12.4779 17.7977L12.0384 20.1794C11.3449 20.2579 10.6448 20.2579 9.9513 20.1794L9.51179 17.7927L8.58367 17.4367C7.88389 17.1715 7.23322 16.7934 6.6513 16.3146L5.88032 15.6787L3.58701 16.4939C3.1696 15.9316 2.82094 15.3251 2.54103 14.6867L4.39483 13.103L4.23523 12.1209C4.1763 11.755 4.14438 11.3769 4.14438 11.0037C4.14438 10.628 4.17384 10.2523 4.23523 9.8865L4.39483 8.90435L2.54103 7.32065C2.81849 6.6798 3.1696 6.07578 3.58701 5.5135L5.88032 6.32868L6.6513 5.69275C7.23322 5.21395 7.88389 4.83583 8.58367 4.57065L9.51425 4.21953L9.95375 1.83292C10.6437 1.75435 11.3484 1.75435 12.0408 1.83292L12.4803 4.21462L13.4158 4.56574C14.1205 4.83092 14.7761 5.20904 15.3629 5.69029L16.1339 6.32377L18.4125 5.51596C18.8299 6.07824 19.1785 6.68471 19.4584 7.3231L17.6243 8.89208L17.7839 9.87176ZM10.9997 6.43672C8.61313 6.43672 6.67831 8.37154 6.67831 10.7581C6.67831 13.1448 8.61313 15.0796 10.9997 15.0796C13.3863 15.0796 15.3212 13.1448 15.3212 10.7581C15.3212 8.37154 13.3863 6.43672 10.9997 6.43672ZM12.9444 12.7028C12.6893 12.9586 12.3862 13.1614 12.0525 13.2996C11.7187 13.4378 11.361 13.5087 10.9997 13.5081C10.2656 13.5081 9.57563 13.2209 9.05509 12.7028C8.7993 12.4477 8.59647 12.1446 8.45825 11.8109C8.32004 11.4771 8.24917 11.1194 8.24974 10.7581C8.24974 10.024 8.53701 9.33404 9.05509 8.8135C9.57563 8.29297 10.2656 8.00815 10.9997 8.00815C11.7339 8.00815 12.4238 8.29297 12.9444 8.8135C13.2002 9.06856 13.403 9.37168 13.5412 9.70542C13.6794 10.0392 13.7503 10.3969 13.7497 10.7581C13.7497 11.4923 13.4625 12.1823 12.9444 12.7028Z" fill="black"/>
</g>
</g>
<defs>
<clipPath id="clip0_2424_237090">
<rect width="22" height="22" fill="white"/>
</clipPath>
<clipPath id="clip1_2424_237090">
<rect width="22" height="22" fill="white"/>
</clipPath>
</defs>
</svg>
