<svg width="17" height="18" viewBox="0 0 17 18" fill="none" xmlns="http://www.w3.org/2000/svg">
<path d="M1 4H2.66667H16" stroke="black" stroke-width="2" stroke-linecap="round" stroke-linejoin="round"/>
<path d="M5.35714 4.2V2.6C5.35714 2.17565 5.5227 1.76869 5.8174 1.46863C6.1121 1.16857 6.5118 1 6.92857 1H10.0714C10.4882 1 10.8879 1.16857 11.1826 1.46863C11.4773 1.76869 11.6429 2.17565 11.6429 2.6V4.2M14 4.2V15.4C14 15.8243 13.8344 16.2313 13.5397 16.5314C13.245 16.8314 12.8453 17 12.4286 17H4.57143C4.15466 17 3.75496 16.8314 3.46026 16.5314C3.16556 16.2313 3 15.8243 3 15.4V4.2H14Z" stroke="black" stroke-width="2" stroke-linecap="round" stroke-linejoin="round"/>
</svg>
