<svg width="19" height="19" viewBox="0 0 19 19" fill="none" xmlns="http://www.w3.org/2000/svg">
<path d="M10.5556 6.33333H8.44444V4.22222H10.5556V6.33333ZM10.5556 14.7778H8.44444V8.44444H10.5556V14.7778ZM2.11111 0H16.8889C17.4488 0 17.9858 0.22242 18.3817 0.61833C18.7776 1.01424 19 1.55121 19 2.11111V16.8889C19 17.4483 18.7783 17.9867 18.3772 18.3772C17.9867 18.7783 17.4483 19 16.8889 19H2.11111C1.55167 19 1.01333 18.7783 0.622778 18.3772C0.221667 17.9867 0 17.4483 0 16.8889V2.11111C0 0.939444 0.939444 0 2.11111 0ZM16.8889 16.8889V2.11111H2.11111V16.8889H16.8889Z" fill="black"/>
</svg>
