<svg width="20" height="20" viewBox="0 0 20 20" fill="none" xmlns="http://www.w3.org/2000/svg">
<path d="M3.88989 16L8.74773 15.9835L19.3506 5.48185C19.7667 5.06575 19.9957 4.51315 19.9957 3.92532C19.9957 3.33749 19.7667 2.78489 19.3506 2.36879L17.6048 0.622916C16.7726 -0.20929 15.3206 -0.204886 14.495 0.619613L3.88989 11.1235V16V16ZM16.0482 2.17945L17.7974 3.92202L16.0394 5.66348L14.2936 3.91871L16.0482 2.17945ZM6.09149 12.0415L12.7293 5.46644L14.4752 7.21231L7.83846 13.7852L6.09149 13.7907V12.0415Z" fill="#4285F4"/>
<path d="M2.22222 20H17.7778C19.0033 20 20 19.0033 20 17.7778V8.14667L17.7778 10.3689V17.7778H5.73111C5.70222 17.7778 5.67222 17.7889 5.64333 17.7889C5.60667 17.7889 5.57 17.7789 5.53222 17.7778H2.22222V2.22222H9.83L12.0522 0H2.22222C0.996667 0 0 0.996667 0 2.22222V17.7778C0 19.0033 0.996667 20 2.22222 20Z" fill="#4285F4"/>
</svg>
