<svg width="19" height="19" viewBox="0 0 19 19" fill="none" xmlns="http://www.w3.org/2000/svg">
<path d="M3.69531 15.2L8.31025 15.1843L18.383 5.20776C18.7783 4.81246 18.9958 4.28749 18.9958 3.72905C18.9958 3.17062 18.7783 2.64564 18.383 2.25035L16.7244 0.59177C15.9338 -0.198825 14.5545 -0.194642 13.7702 0.588632L3.69531 10.5673V15.2V15.2ZM15.2457 2.07048L16.9075 3.72591L15.2374 5.38031L13.5788 3.72278L15.2457 2.07048ZM5.78683 11.4394L12.0928 5.19312L13.7513 6.85169L7.44646 13.0959L5.78683 13.1012V11.4394Z" fill="black"/>
<path d="M2.11111 19H16.8889C18.0532 19 19 18.0532 19 16.8889V7.73933L16.8889 9.85044V16.8889H5.44456C5.41711 16.8889 5.38861 16.8994 5.36117 16.8994C5.32633 16.8994 5.2915 16.8899 5.25561 16.8889H2.11111V2.11111H9.3385L11.4496 0H2.11111C0.946833 0 0 0.946833 0 2.11111V16.8889C0 18.0532 0.946833 19 2.11111 19Z" fill="black"/>
</svg>
