<svg width="19" height="19" viewBox="0 0 19 19" fill="none" xmlns="http://www.w3.org/2000/svg">
<g clip-path="url(#clip0_4982_119631)">
<path d="M6.914 13.984L9.742 11.156L12.57 13.984L13.984 12.57L11.156 9.742L13.984 6.914L12.57 5.5L9.742 8.328L6.914 5.5L5.5 6.914L8.328 9.742L5.5 12.57L6.914 13.984Z" fill="#FF0000"/>
<path d="M9.5 19C14.7383 19 19 14.7383 19 9.5C19 4.2617 14.7383 0 9.5 0C4.2617 0 0 4.2617 0 9.5C0 14.7383 4.2617 19 9.5 19ZM9.5 1.9C13.6904 1.9 17.1 5.30955 17.1 9.5C17.1 13.6904 13.6904 17.1 9.5 17.1C5.30955 17.1 1.9 13.6904 1.9 9.5C1.9 5.30955 5.30955 1.9 9.5 1.9Z" fill="#FF0000"/>
</g>
<defs>
<clipPath id="clip0_4982_119631">
<rect width="19" height="19" fill="white"/>
</clipPath>
</defs>
</svg>
