<svg width="20" height="20" viewBox="0 0 20 20" fill="none" xmlns="http://www.w3.org/2000/svg">
<path d="M2.22222 20H17.7778C18.3671 20 18.9324 19.7659 19.3491 19.3491C19.7659 18.9324 20 18.3671 20 17.7778V5.55557C20.0008 5.40934 19.9728 5.26438 19.9175 5.12901C19.8622 4.99363 19.7807 4.8705 19.6778 4.76668L15.2333 0.32224C15.1295 0.219261 15.0064 0.137789 14.871 0.0824949C14.7356 0.0272009 14.5907 -0.000826865 14.4444 1.85714e-05H2.22222C1.63285 1.85714e-05 1.06762 0.234145 0.650873 0.650892C0.234126 1.06764 0 1.63287 0 2.22224V17.7778C0 18.3671 0.234126 18.9324 0.650873 19.3491C1.06762 19.7659 1.63285 20 2.22222 20ZM13.3333 17.7778H6.66666V12.2222H13.3333V17.7778ZM11.1111 4.44446H8.88888V2.22224H11.1111V4.44446ZM2.22222 2.22224H4.44444V6.66668H13.3333V2.22224H13.9889L17.7778 6.01112V17.7778H15.5555V12.2222C15.5555 11.6329 15.3214 11.0676 14.9047 10.6509C14.4879 10.2341 13.9227 10 13.3333 10H6.66666C6.07729 10 5.51206 10.2341 5.09531 10.6509C4.67857 11.0676 4.44444 11.6329 4.44444 12.2222V17.7778H2.22222V2.22224Z" fill="#34A853"/>
</svg>
