<svg width="16" height="20" viewBox="0 0 16 20" fill="none" xmlns="http://www.w3.org/2000/svg">
<g clip-path="url(#clip0_4904_121007)">
<path d="M9.03401 5.81855V7.84655C9.03401 7.92055 9.03101 7.99455 9.02601 8.06755C9.05593 8.19945 9.11231 8.32391 9.19172 8.4334C9.27113 8.54289 9.37192 8.63513 9.48801 8.70455L12.574 10.5505C13.0193 10.8169 13.3878 11.1941 13.6437 11.6454C13.8996 12.0968 14.0341 12.6067 14.034 13.1255V14.1845C14.6986 14.4285 15.2556 14.8995 15.6065 15.5143C15.9574 16.1292 16.0796 16.8483 15.9516 17.5446C15.8235 18.2409 15.4534 18.8695 14.9067 19.3192C14.36 19.769 13.6719 20.0111 12.964 20.0026C12.2561 19.9941 11.574 19.7356 11.0383 19.2728C10.5026 18.81 10.1477 18.1728 10.0364 17.4736C9.92507 16.7745 10.0645 16.0585 10.4301 15.4522C10.7956 14.846 11.3637 14.3884 12.034 14.1605V13.1255C12.0339 12.9526 11.989 12.7827 11.9037 12.6323C11.8183 12.4819 11.6954 12.3563 11.547 12.2675L8.46101 10.4215C8.3034 10.3274 8.15478 10.2189 8.01701 10.0975C7.87955 10.2189 7.73126 10.3273 7.57401 10.4215L4.48801 12.2675C4.33958 12.3563 4.21669 12.4819 4.13133 12.6323C4.04598 12.7827 4.00107 12.9526 4.00101 13.1255V14.1725C4.6685 14.4085 5.2311 14.8727 5.58937 15.4834C5.94763 16.094 6.07849 16.8116 5.95882 17.5093C5.83914 18.2071 5.47664 18.8401 4.93538 19.2964C4.39412 19.7528 3.70896 20.003 3.00101 20.003C2.29305 20.003 1.60789 19.7528 1.06663 19.2964C0.525375 18.8401 0.16287 18.2071 0.043195 17.5093C-0.0764802 16.8116 0.0543805 16.094 0.412646 15.4834C0.770912 14.8727 1.33351 14.4085 2.00101 14.1725V13.1255C2.00093 12.6067 2.13541 12.0968 2.3913 11.6454C2.6472 11.1941 3.01576 10.8169 3.46101 10.5505L6.54701 8.70455C6.66309 8.63513 6.76389 8.54289 6.8433 8.4334C6.92271 8.32391 6.97908 8.19945 7.00901 8.06755C7.00363 7.994 7.00096 7.92029 7.00101 7.84655V5.83055C6.33492 5.59518 5.77322 5.13238 5.41479 4.52361C5.05636 3.91485 4.92419 3.19915 5.04153 2.50252C5.15887 1.80589 5.51822 1.17298 6.0563 0.715229C6.59437 0.257476 7.27669 0.00422213 7.98313 5.23227e-05C8.68956 -0.00411748 9.37482 0.241064 9.91827 0.692433C10.4617 1.1438 10.8285 1.77242 10.9541 2.46762C11.0796 3.16282 10.9559 3.88003 10.6047 4.49298C10.2535 5.10593 9.69727 5.57534 9.03401 5.81855Z" fill="#4285F4"/>
<path d="M7.00208 8.1011C6.99323 8.07198 6.99504 8.05987 7.00998 8.0688C7.00753 8.07962 7.00489 8.09039 7.00208 8.1011C7.08659 8.37918 8.14269 10.2087 8.01798 10.0988C7.88053 10.2201 7.73224 10.3286 7.57498 10.4228L4.48898 12.2688C4.34055 12.3575 4.21766 12.4832 4.13231 12.6336C4.04695 12.7839 4.00205 12.9539 4.00198 13.1268V14.1738C4.66948 14.4097 5.23208 14.874 5.59034 15.4846C5.94861 16.0952 6.07947 16.8128 5.95979 17.5106C5.84012 18.2084 5.47761 18.8413 4.93635 19.2977C4.3951 19.754 3.70994 20.0043 3.00198 20.0043C2.29403 20.0043 1.60887 19.754 1.06761 19.2977C0.526352 18.8413 0.163847 18.2084 0.0441716 17.5106C-0.0755036 16.8128 0.055357 16.0952 0.413623 15.4846C0.771889 14.874 1.33449 14.4097 2.00198 14.1738V13.1268C2.00191 12.608 2.13638 12.098 2.39228 11.6467C2.64817 11.1954 3.01674 10.8181 3.46198 10.5518L6.54798 8.7058C6.66407 8.63639 6.76486 8.54414 6.84427 8.43465C6.91717 8.33415 6.97065 8.22102 7.00208 8.1011Z" fill="#C9C9C9"/>
</g>
<defs>
<clipPath id="clip0_4904_121007">
<rect width="16" height="20" fill="white"/>
</clipPath>
</defs>
</svg>
