<svg width="29" height="30" viewBox="0 0 29 30" fill="none" xmlns="http://www.w3.org/2000/svg">
<g clip-path="url(#clip0_3883_119412)">
<path d="M15 7C10.5817 7 7 10.5817 7 15C7 19.4183 10.5817 23 15 23C19.4183 23 23 19.4183 23 15C23 10.5817 19.4183 7 15 7Z" stroke="black" stroke-width="2.92" stroke-linecap="round" stroke-linejoin="round"/>
<path d="M5.80762 5.80761L12.8787 12.8787M5.80762 24.1924L12.8787 17.1213M17.1213 12.8787L24.1924 5.80761M17.1213 17.1213L24.1924 24.1924" stroke="black" stroke-width="2.92" stroke-linecap="round" stroke-linejoin="round"/>
<path d="M4.88889 15.125H2M15 28.25V25.3333V28.25ZM28 15.125H25.1111H28ZM15 4.91667V2V4.91667Z" stroke="black" stroke-linecap="round" stroke-linejoin="round"/>
</g>
<defs>
<clipPath id="clip0_3883_119412">
<rect width="29" height="30" fill="white"/>
</clipPath>
</defs>
</svg>
