<svg width="20" height="20" viewBox="0 0 20 20" fill="none" xmlns="http://www.w3.org/2000/svg">
<path d="M1 17.1999C0.999924 15.8142 1.39972 14.4579 2.15141 13.2938C2.9031 12.1297 3.97475 11.2072 5.23774 10.6371C6.50073 10.067 7.90141 9.87346 9.27168 10.0797C10.642 10.286 11.9236 10.8833 12.9628 11.7999" stroke="black" stroke-width="2" stroke-linecap="round" stroke-linejoin="round"/>
<path d="M8.19995 10C10.6852 10 12.7 7.98528 12.7 5.5C12.7 3.01472 10.6852 1 8.19995 1C5.71467 1 3.69995 3.01472 3.69995 5.5C3.69995 7.98528 5.71467 10 8.19995 10Z" stroke="black" stroke-width="2" stroke-linecap="round" stroke-linejoin="round"/>
<path d="M16.3 12.7V18.1M19 15.4H13.6" stroke="black" stroke-width="2" stroke-linecap="round" stroke-linejoin="round"/>
</svg>
