<svg width="19" height="19" viewBox="0 0 19 19" fill="none" xmlns="http://www.w3.org/2000/svg">
<path d="M10.4181 0V1.92188C14.5949 2.43565 17.5538 6.23185 17.0401 10.4086C16.6024 13.8718 13.8813 16.6214 10.4181 17.0305V18.9334C15.651 18.4101 19.4567 13.7672 18.9334 8.5343C18.5053 4.01502 14.9184 0.447171 10.4181 0ZM8.51527 0.0285428C6.65999 0.209314 4.89034 0.922885 3.44417 2.12168L4.80471 3.52979C5.87031 2.67351 7.15473 2.12168 8.51527 1.9314V0.0285428ZM2.10265 3.4632C0.913792 4.90729 0.181812 6.67265 0 8.5343H1.90285C2.08363 7.18328 2.61643 5.89885 3.4632 4.82374L2.10265 3.4632ZM0.00951426 10.4372C0.1998 12.302 0.932399 14.0621 2.11217 15.5083L3.4632 14.1477C2.62294 13.0723 2.0873 11.7907 1.91237 10.4372H0.00951426ZM4.80471 15.5463L3.44417 16.8498C4.88555 18.0508 6.64987 18.7989 8.51527 19V17.0971C7.16175 16.9222 5.88016 16.3866 4.80471 15.5463ZM14.0526 12.5208L10.1422 8.61042C10.5323 7.62093 10.3135 6.46019 9.49524 5.65148C8.63896 4.78568 7.35453 4.61442 6.31748 5.09014L8.16325 6.9359L6.87882 8.22985L4.98548 6.37456C4.47171 7.41162 4.70957 8.69604 5.54682 9.56184C6.36505 10.3801 7.52579 10.5894 8.51527 10.2088L12.4256 14.1097C12.5969 14.2904 12.8538 14.2904 13.025 14.1097L14.0145 13.1297C14.2238 12.9584 14.2238 12.654 14.0526 12.5208Z" fill="#4285F4"/>
</svg>
