<svg width="18" height="18" viewBox="0 0 18 18" fill="none" xmlns="http://www.w3.org/2000/svg">
<path d="M9.86981 0V1.82073C13.8267 2.30746 16.6299 5.90386 16.1432 9.86079C15.7286 13.1417 13.1507 15.7466 9.86981 16.1342V17.9369C14.8272 17.4412 18.4327 13.0426 17.9369 8.08513C17.5313 3.80371 14.1332 0.423635 9.86981 0ZM8.0671 0.0270405C6.30946 0.198297 4.63295 0.874312 3.26289 2.01002L4.55183 3.34402C5.56134 2.5328 6.77817 2.01002 8.0671 1.82974V0.0270405ZM1.99199 3.28092C0.865698 4.64901 0.172243 6.32146 0 8.08513H1.8027C1.97396 6.80521 2.47872 5.58838 3.28092 4.56985L1.99199 3.28092ZM0.00901351 9.88783C0.189284 11.6545 0.883325 13.322 2.001 14.692L3.28092 13.4031C2.48489 12.3843 1.97744 11.1701 1.81172 9.88783H0.00901351ZM4.55183 14.7281L3.26289 15.9629C4.62841 17.1008 6.29988 17.8095 8.0671 18V16.1973C6.78482 16.0316 5.57068 15.5241 4.55183 14.7281ZM13.313 11.8618L9.60841 8.15724C9.97797 7.21983 9.77066 6.12018 8.99549 5.35403C8.18428 4.5338 6.96745 4.37156 5.98498 4.82223L7.7336 6.57086L6.51678 7.7967L4.72308 6.03906C4.23635 7.02153 4.46169 8.23836 5.25488 9.05859C6.03005 9.83375 7.1297 10.032 8.0671 9.67151L11.7717 13.3671C11.9339 13.5383 12.1773 13.5383 12.3395 13.3671L13.2769 12.4387C13.4752 12.2764 13.4752 11.988 13.313 11.8618Z" fill="black"/>
</svg>
