<svg width="17" height="18" viewBox="0 0 17 18" fill="none" xmlns="http://www.w3.org/2000/svg">
<path d="M14.3955 1.8873C14.3606 1.37523 14.1325 0.895516 13.7575 0.545161C13.3824 0.194806 12.8883 -4.74454e-05 12.375 8.66557e-09H2.025L1.8864 0.00450011C1.37433 0.0396305 0.894714 0.2679 0.544525 0.643151C0.194336 1.0184 -0.000290842 1.51263 3.26227e-07 2.0259V15.9741L0.00450043 16.1127C0.039402 16.6248 0.26745 17.1045 0.642531 17.4548C1.01761 17.8052 1.51174 18 2.025 18H8.8362L7.4862 16.65H2.025L1.9332 16.6437C1.7716 16.6215 1.6235 16.5416 1.51629 16.4186C1.40908 16.2957 1.35001 16.1381 1.35 15.975V2.0259L1.3563 1.9341C1.37848 1.7725 1.45843 1.6244 1.58136 1.51719C1.70429 1.40998 1.86189 1.35091 2.025 1.3509H12.375L12.4668 1.3572C12.6284 1.37938 12.7765 1.45933 12.8837 1.58226C12.9909 1.70519 13.05 1.86279 13.05 2.0259V12.4362L14.0931 11.3931C14.1891 11.2971 14.2911 11.2131 14.3991 11.1411V2.025L14.3955 1.8873ZM11.0592 17.9991H10.9908C10.8236 17.9907 10.6654 17.9205 10.5471 17.802L8.2971 15.5502C8.17059 15.4235 8.09961 15.2516 8.09978 15.0726C8.09995 14.8935 8.17125 14.7218 8.298 14.5953C8.42475 14.4688 8.59656 14.3978 8.77564 14.398C8.95471 14.3982 9.12639 14.4695 9.2529 14.5962L11.025 16.3701L15.048 12.3471C15.1103 12.2827 15.1848 12.2313 15.2672 12.1959C15.3495 12.1606 15.4381 12.142 15.5277 12.1413C15.6174 12.1405 15.7063 12.1577 15.7892 12.1916C15.8721 12.2256 15.9475 12.2758 16.0108 12.3392C16.0742 12.4026 16.1242 12.478 16.1582 12.561C16.1921 12.6439 16.2091 12.7328 16.2083 12.8224C16.2074 12.9121 16.1888 13.0006 16.1534 13.083C16.118 13.1653 16.0665 13.2398 16.002 13.302L11.502 17.802C11.3839 17.9203 11.2261 17.9905 11.0592 17.9991ZM8.856 13.05C8.80143 13.0475 8.74677 13.0475 8.6922 13.05H6.5205C6.34148 13.05 6.16979 12.9789 6.0432 12.8523C5.91662 12.7257 5.8455 12.554 5.8455 12.375C5.8455 12.196 5.91662 12.0243 6.0432 11.8977C6.16979 11.7711 6.34148 11.7 6.5205 11.7H11.0241C11.2031 11.7 11.3748 11.7711 11.5014 11.8977C11.628 12.0243 11.6991 12.196 11.6991 12.375C11.6991 12.554 11.628 12.7257 11.5014 12.8523C11.3748 12.9789 11.2031 13.05 11.0241 13.05H8.856ZM4.5 5.1768C4.5 5.41549 4.40518 5.64441 4.2364 5.8132C4.06761 5.98198 3.8387 6.0768 3.6 6.0768C3.36131 6.0768 3.13239 5.98198 2.9636 5.8132C2.79482 5.64441 2.7 5.41549 2.7 5.1768C2.7 4.9381 2.79482 4.70919 2.9636 4.5404C3.13239 4.37162 3.36131 4.2768 3.6 4.2768C3.8387 4.2768 4.06761 4.37162 4.2364 4.5404C4.40518 4.70919 4.5 4.9381 4.5 5.1768ZM5.8464 5.175C5.8464 4.99598 5.91752 4.82429 6.0441 4.6977C6.17069 4.57112 6.34238 4.5 6.5214 4.5H11.025C11.204 4.5 11.3757 4.57112 11.5023 4.6977C11.6289 4.82429 11.7 4.99598 11.7 5.175C11.7 5.35402 11.6289 5.52571 11.5023 5.6523C11.3757 5.77888 11.204 5.85 11.025 5.85H6.5214C6.34238 5.85 6.17069 5.77888 6.0441 5.6523C5.91752 5.52571 5.8464 5.35402 5.8464 5.175ZM6.5214 8.1C6.34238 8.1 6.17069 8.17112 6.0441 8.2977C5.91752 8.42429 5.8464 8.59598 5.8464 8.775C5.8464 8.95402 5.91752 9.12571 6.0441 9.2523C6.17069 9.37888 6.34238 9.45 6.5214 9.45H11.025C11.1136 9.45 11.2014 9.43254 11.2833 9.39862C11.3652 9.3647 11.4396 9.31498 11.5023 9.2523C11.565 9.18962 11.6147 9.11521 11.6486 9.03331C11.6825 8.95142 11.7 8.86364 11.7 8.775C11.7 8.68636 11.6825 8.59858 11.6486 8.51669C11.6147 8.43479 11.565 8.36038 11.5023 8.2977C11.4396 8.23502 11.3652 8.1853 11.2833 8.15138C11.2014 8.11746 11.1136 8.1 11.025 8.1H6.5214ZM3.6 9.675C3.8387 9.675 4.06761 9.58018 4.2364 9.4114C4.40518 9.24261 4.5 9.01369 4.5 8.775C4.5 8.5363 4.40518 8.30739 4.2364 8.1386C4.06761 7.96982 3.8387 7.875 3.6 7.875C3.36131 7.875 3.13239 7.96982 2.9636 8.1386C2.79482 8.30739 2.7 8.5363 2.7 8.775C2.7 9.01369 2.79482 9.24261 2.9636 9.4114C3.13239 9.58018 3.36131 9.675 3.6 9.675ZM4.5 12.3732C4.5 12.6119 4.40518 12.8408 4.2364 13.0096C4.06761 13.1784 3.8387 13.2732 3.6 13.2732C3.36131 13.2732 3.13239 13.1784 2.9636 13.0096C2.79482 12.8408 2.7 12.6119 2.7 12.3732C2.7 12.1345 2.79482 11.9056 2.9636 11.7368C3.13239 11.568 3.36131 11.4732 3.6 11.4732C3.8387 11.4732 4.06761 11.568 4.2364 11.7368C4.40518 11.9056 4.5 12.1345 4.5 12.3732Z" fill="black"/>
</svg>
