<svg width="26" height="24" viewBox="0 0 26 24" fill="none" xmlns="http://www.w3.org/2000/svg">
<path d="M2.90523 12.9012L2.27163 13.5396C2.44018 13.7067 2.6679 13.8004 2.90523 13.8004C3.14256 13.8004 3.37028 13.7067 3.53883 13.5396L2.90523 12.9012ZM5.55483 11.5404C5.72446 11.372 5.82027 11.1432 5.82117 10.9042C5.82207 10.6652 5.72799 10.4356 5.55963 10.266C5.47627 10.182 5.37718 10.1153 5.26802 10.0696C5.15886 10.0239 5.04176 10.0001 4.92342 9.99966C4.68443 9.99876 4.45486 10.0928 4.28523 10.2612L5.55483 11.5404ZM1.52283 10.2612C1.35242 10.0978 1.12465 10.008 0.888597 10.011C0.652548 10.0139 0.427125 10.1096 0.260909 10.2772C0.0946939 10.4448 0.000995424 10.671 7.88557e-06 10.9071C-0.000979653 11.1432 0.0908227 11.3702 0.25563 11.5392L1.52283 10.2612ZM20.8284 6.1716C20.8888 6.27548 20.9693 6.36624 21.0652 6.43851C21.1612 6.51079 21.2706 6.56312 21.3871 6.59243C21.5036 6.62174 21.6248 6.62743 21.7436 6.60916C21.8623 6.5909 21.9762 6.54904 22.0785 6.48608C22.1808 6.42311 22.2694 6.3403 22.3392 6.24252C22.409 6.14475 22.4585 6.03399 22.4848 5.91678C22.5112 5.79957 22.5137 5.67828 22.4924 5.56005C22.4711 5.44182 22.4264 5.32906 22.3608 5.2284L20.8284 6.1716ZM18.7608 1.6296C18.6602 1.56403 18.5474 1.51928 18.4292 1.49798C18.311 1.47668 18.1897 1.47927 18.0725 1.50558C17.9552 1.5319 17.8445 1.58141 17.7467 1.65121C17.6489 1.721 17.5661 1.80966 17.5032 1.91197C17.4402 2.01427 17.3983 2.12814 17.3801 2.24688C17.3618 2.36561 17.3675 2.4868 17.3968 2.6033C17.4261 2.7198 17.4784 2.82925 17.5507 2.9252C17.623 3.02116 17.7137 3.10167 17.8176 3.162L18.7608 1.6296ZM13.4448 1.8108C13.681 1.81887 13.9109 1.73372 14.0848 1.57373C14.2588 1.41375 14.3628 1.19177 14.3745 0.955731C14.3861 0.719694 14.3045 0.488541 14.1472 0.312192C13.9898 0.135843 13.7695 0.0284481 13.5336 0.0132011L13.4448 1.8108ZM12.9852 0.00120111C6.92883 0.00120111 2.00523 4.8744 2.00523 10.9008H3.80523C3.80523 5.8824 7.90923 1.8012 12.9852 1.8012V0.00120111ZM2.00523 10.9008V12.9012H3.80523V10.9008H2.00523ZM3.54123 13.5408L5.55483 11.5404L4.28523 10.2612L2.26923 12.2616L3.54123 13.5408ZM3.54123 12.2628L1.52283 10.2612L0.25443 11.5392L2.27043 13.5384L3.54123 12.2628ZM22.362 5.2308C21.4603 3.76558 20.2273 2.5325 18.762 1.6308L17.8188 3.1632C19.0441 3.91698 20.0754 4.94782 20.8296 6.1728L22.362 5.2308ZM13.5336 0.0132011C13.3506 0.00431766 13.1673 -8.35587e-05 12.984 1.20112e-06V1.8C13.1388 1.8 13.2924 1.8036 13.4448 1.812L13.5336 0.0132011ZM22.8648 10.5012L23.4984 9.8616C23.3299 9.69489 23.1025 9.60138 22.8654 9.60138C22.6284 9.60138 22.4009 9.69489 22.2324 9.8616L22.8648 10.5012ZM20.2092 11.8608C20.1252 11.9439 20.0583 12.0428 20.0124 12.1518C19.9666 12.2607 19.9426 12.3777 19.9419 12.4959C19.9406 12.7347 20.0341 12.9642 20.202 13.134C20.3699 13.3038 20.5984 13.3999 20.8371 13.4013C21.0759 13.4026 21.3054 13.3091 21.4752 13.1412L20.2092 11.8608ZM24.2568 13.1412C24.3404 13.2265 24.4401 13.2943 24.5502 13.3407C24.6602 13.387 24.7784 13.411 24.8978 13.4113C25.0173 13.4115 25.1355 13.388 25.2458 13.3421C25.356 13.2961 25.456 13.2287 25.5399 13.1438C25.6239 13.0588 25.69 12.958 25.7346 12.8472C25.7792 12.7364 25.8013 12.6179 25.7996 12.4985C25.7978 12.379 25.7724 12.2612 25.7247 12.1517C25.677 12.0422 25.6079 11.9433 25.5216 11.8608L24.2568 13.1412ZM4.87083 17.2284C4.74544 17.0252 4.54445 16.8801 4.3121 16.8251C4.07974 16.7701 3.83504 16.8096 3.63183 16.935C3.42862 17.0604 3.28355 17.2614 3.22852 17.4937C3.1735 17.7261 3.21304 17.9708 3.33843 18.174L4.87083 17.2284ZM12.3288 21.5916C12.0903 21.5811 11.8574 21.6658 11.6813 21.827C11.5052 21.9883 11.4003 22.2129 11.3898 22.4514C11.3793 22.6899 11.464 22.9229 11.6253 23.099C11.7865 23.2751 12.0111 23.3799 12.2496 23.3904L12.3288 21.5916ZM7.02483 21.8172C7.22931 21.9404 7.47435 21.9773 7.70603 21.9198C7.93771 21.8623 8.13706 21.7151 8.26023 21.5106C8.3834 21.3061 8.42029 21.0611 8.36279 20.8294C8.30529 20.5977 8.15811 20.3984 7.95363 20.2752L7.02483 21.8172ZM12.7488 23.4012C18.8232 23.4012 23.7648 18.5316 23.7648 12.5016H21.9648C21.9648 17.5176 17.8488 21.6012 12.7488 21.6012V23.4012ZM23.7648 12.5016V10.5012H21.9648V12.5016H23.7648ZM22.2324 9.8616L20.2092 11.8608L21.4752 13.1412L23.4984 11.1408L22.2324 9.8616ZM22.2324 11.1408L24.2568 13.1412L25.5216 11.8608L23.4984 9.8616L22.2324 11.1408ZM12.2484 23.3904C12.4152 23.3976 12.5808 23.4012 12.7488 23.4012V21.6012C12.6088 21.601 12.4687 21.5978 12.3288 21.5916L12.2484 23.3904ZM3.33843 18.174C4.25989 19.6644 5.52369 20.9134 7.02483 21.8172L7.95363 20.2752C6.69787 19.5194 5.64179 18.4749 4.87083 17.2284L3.33843 18.174Z" fill="black"/>
</svg>
