<svg width="79" height="150" viewBox="0 0 79 150" fill="none" xmlns="http://www.w3.org/2000/svg">
<path d="M68.8016 1.77808L1.83444 70.4769C0.658264 71.6836 0 73.302 0 74.9871C0 76.6721 0.658264 78.2905 1.83444 79.4972L68.8016 148.222C69.3495 148.785 70.0046 149.232 70.7281 149.537C71.4517 149.843 72.2291 150 73.0145 150C73.7999 150 74.5773 149.843 75.3009 149.537C76.0245 149.232 76.6795 148.785 77.2274 148.222C78.3546 147.068 78.9856 145.519 78.9856 143.906C78.9856 142.292 78.3546 140.743 77.2274 139.589L14.2535 74.9871L77.2274 10.3977C78.3507 9.24434 78.9793 7.69794 78.9793 6.08791C78.9793 4.47789 78.3507 2.93149 77.2274 1.77808C76.6795 1.21537 76.0245 0.768117 75.3009 0.462728C74.5773 0.157338 73.7999 0 73.0145 0C72.2291 0 71.4517 0.157338 70.7281 0.462728C70.0046 0.768117 69.3495 1.21537 68.8016 1.77808V1.77808Z" fill="white"/>
</svg>
