<svg width="79" height="150" viewBox="0 0 79 150" fill="none" xmlns="http://www.w3.org/2000/svg">
<path d="M10.184 148.222L77.1512 79.5231C78.3273 78.3164 78.9856 76.698 78.9856 75.0129C78.9856 73.3279 78.3273 71.7095 77.1512 70.5028L10.184 1.77808C9.63609 1.21536 8.98103 0.768112 8.25746 0.462722C7.53388 0.157333 6.75646 4.0232e-06 5.97108 4.0232e-06C5.1857 4.0232e-06 4.40826 0.157333 3.68469 0.462722C2.96111 0.768112 2.30605 1.21536 1.75817 1.77808C0.630988 2.93208 -5.29948e-05 4.48123 -5.29948e-05 6.09438C-5.29948e-05 7.70753 0.630988 9.25667 1.75817 10.4107L64.7321 75.0129L1.75817 139.602C0.634855 140.756 0.00625708 142.302 0.00625708 143.912C0.00625708 145.522 0.634855 147.069 1.75817 148.222C2.30605 148.785 2.96111 149.232 3.68469 149.537C4.40826 149.843 5.1857 150 5.97108 150C6.75646 150 7.53388 149.843 8.25746 149.537C8.98103 149.232 9.63609 148.785 10.184 148.222V148.222Z" fill="white"/>
</svg>
