<svg width="22" height="24" viewBox="0 0 22 24" fill="none" xmlns="http://www.w3.org/2000/svg">
<path d="M15.6 0C15.8939 3.87727e-05 16.1776 0.107947 16.3972 0.303258C16.6169 0.498569 16.7572 0.767699 16.7916 1.0596L16.8 1.2V2.4H18C18.9183 2.39995 19.8018 2.75079 20.4699 3.38074C21.138 4.01069 21.5401 4.87213 21.594 5.7888L21.6 6V20.4C21.6001 21.3183 21.2492 22.2018 20.6193 22.8699C19.9893 23.538 19.1279 23.9401 18.2112 23.994L18 24H3.6C2.68175 24.0001 1.79818 23.6492 1.13009 23.0193C0.461992 22.3893 0.059871 21.5279 0.00600014 20.6112L5.59254e-09 20.4V6C-5.11461e-05 5.08175 0.35079 4.19818 0.98074 3.53009C1.61069 2.86199 2.47213 2.45987 3.3888 2.406L3.6 2.4H4.8V1.2C4.80034 0.894144 4.91745 0.599961 5.12742 0.377558C5.33738 0.155155 5.62434 0.021318 5.92967 0.00339346C6.235 -0.0145311 6.53566 0.0848095 6.7702 0.281118C7.00474 0.477426 7.15548 0.755885 7.1916 1.0596L7.2 1.2V2.4H14.4V1.2C14.4 0.88174 14.5264 0.576515 14.7515 0.351472C14.9765 0.126428 15.2817 0 15.6 0ZM19.2 8.4H2.4V19.95C2.4 20.796 2.8632 21.4932 3.4596 21.5892L3.6 21.6H18C18.6156 21.6 19.1232 20.964 19.1916 20.142L19.2 19.95V8.4Z" fill="black"/>
<path d="M10.8 12C11.094 12 11.3776 12.1079 11.5973 12.3033C11.8169 12.4986 11.9572 12.7677 11.9916 13.0596L12 13.2V16.8C11.9997 17.1059 11.8826 17.4 11.6726 17.6224C11.4627 17.8448 11.1757 17.9787 10.8704 17.9966C10.565 18.0145 10.2644 17.9152 10.0298 17.7189C9.7953 17.5226 9.64456 17.2441 9.60844 16.9404L9.60004 16.8V14.4C9.29418 14.3997 9 14.2825 8.7776 14.0726C8.55519 13.8626 8.42136 13.5757 8.40343 13.2703C8.38551 12.965 8.48485 12.6643 8.68116 12.4298C8.87746 12.1953 9.15592 12.0445 9.45964 12.0084L9.60004 12H10.8Z" fill="black"/>
</svg>
