<svg width="36" height="25" viewBox="0 0 36 25" fill="none" xmlns="http://www.w3.org/2000/svg">
<path d="M2.9673 20.1094C3.27004 19.7578 3.64406 19.582 4.08937 19.582C4.44289 19.582 4.73488 19.6846 4.96535 19.8896C5.19582 20.0928 5.31105 20.3564 5.31105 20.6807C5.31105 21.1396 5.09523 21.4688 4.66359 21.668C5.23195 21.8438 5.51613 22.2246 5.51613 22.8105C5.51613 23.2012 5.38918 23.5156 5.13527 23.7539C4.88137 23.9922 4.53371 24.1113 4.0923 24.1113C3.78371 24.1113 3.51516 24.0479 3.28664 23.9209C3.06008 23.792 2.84621 23.5674 2.64504 23.2471L2.97902 23.0508C3.17824 23.3438 3.36477 23.5322 3.53859 23.6162C3.71242 23.6982 3.89309 23.7393 4.08059 23.7393C4.35402 23.7393 4.58644 23.6602 4.77785 23.502C4.96926 23.3438 5.06496 23.1113 5.06496 22.8047C5.06496 22.6426 5.03176 22.502 4.96535 22.3828C4.9009 22.2617 4.8091 22.1641 4.68996 22.0898C4.57082 22.0156 4.45754 21.9688 4.35012 21.9492C4.24269 21.9297 4.06594 21.9199 3.81984 21.9199H3.7466V21.542H3.89016C4.52883 21.542 4.84816 21.2832 4.84816 20.7656C4.84816 20.5254 4.77492 20.335 4.62844 20.1943C4.48391 20.0518 4.30031 19.9805 4.07766 19.9805C3.78859 19.9805 3.51711 20.1113 3.2632 20.373L2.9673 20.1094ZM8.00648 19.6904L10.0162 24H9.55336L8.8766 22.582H7.01918L6.34535 24H5.86488L7.90102 19.6904H8.00648ZM7.95375 20.6045L7.21254 22.166H8.68617L7.95375 20.6045ZM10.989 24H10.5613V19.6904H12.7205V20.1152H10.989V24ZM13.2157 19.6904H14.0741C14.5663 19.6904 14.8983 19.7119 15.0702 19.7549C15.3163 19.8154 15.5175 19.9404 15.6737 20.1299C15.83 20.3174 15.9081 20.5537 15.9081 20.8389C15.9081 21.126 15.8319 21.3633 15.6796 21.5508C15.5272 21.7363 15.3173 21.8613 15.0497 21.9258C14.8544 21.9727 14.4891 21.9961 13.954 21.9961H13.6464V24H13.2157V19.6904ZM13.6464 20.1094V21.5742L14.3759 21.583C14.6708 21.583 14.8866 21.5566 15.0233 21.5039C15.16 21.4492 15.2675 21.3623 15.3456 21.2432C15.4237 21.1221 15.4628 20.9873 15.4628 20.8389C15.4628 20.6943 15.4237 20.5625 15.3456 20.4434C15.2675 20.3223 15.1639 20.2363 15.035 20.1855C14.9081 20.1348 14.6991 20.1094 14.4081 20.1094H13.6464ZM16.3213 19.7021H16.8076L18.1113 22.6289L19.3037 19.6904H19.7754L18.1406 23.5635C17.9883 23.9268 17.7178 24.1084 17.3291 24.1084C17.1729 24.1084 17.0254 24.0762 16.8867 24.0117C16.748 23.9492 16.5723 23.7998 16.3594 23.5635L16.6729 23.3057C16.8896 23.5186 17.0342 23.6396 17.1064 23.6689C17.1787 23.6982 17.252 23.7129 17.3262 23.7129C17.4395 23.7129 17.5371 23.6826 17.6191 23.6221C17.7031 23.5615 17.7949 23.4102 17.8945 23.168L16.3213 19.7021ZM20.4962 20.1094C20.7989 19.7578 21.173 19.582 21.6183 19.582C21.9718 19.582 22.2638 19.6846 22.4943 19.8896C22.7247 20.0928 22.84 20.3564 22.84 20.6807C22.84 21.1396 22.6241 21.4688 22.1925 21.668C22.7609 21.8438 23.045 22.2246 23.045 22.8105C23.045 23.2012 22.9181 23.5156 22.6642 23.7539C22.4103 23.9922 22.0626 24.1113 21.6212 24.1113C21.3126 24.1113 21.0441 24.0479 20.8155 23.9209C20.589 23.792 20.3751 23.5674 20.1739 23.2471L20.5079 23.0508C20.7071 23.3438 20.8937 23.5322 21.0675 23.6162C21.2413 23.6982 21.422 23.7393 21.6095 23.7393C21.8829 23.7393 22.1154 23.6602 22.3068 23.502C22.4982 23.3438 22.5939 23.1113 22.5939 22.8047C22.5939 22.6426 22.5607 22.502 22.4943 22.3828C22.4298 22.2617 22.338 22.1641 22.2189 22.0898C22.0997 22.0156 21.9864 21.9688 21.879 21.9492C21.7716 21.9297 21.5948 21.9199 21.3487 21.9199H21.2755V21.542H21.4191C22.0577 21.542 22.3771 21.2832 22.3771 20.7656C22.3771 20.5254 22.3038 20.335 22.1573 20.1943C22.0128 20.0518 21.8292 19.9805 21.6066 19.9805C21.3175 19.9805 21.046 20.1113 20.7921 20.373L20.4962 20.1094ZM27.1614 24H26.7131V20.6982L23.8743 24H23.7776V19.6904H24.2082V23.0508L27.0647 19.6904H27.1614V24ZM27.6683 20.1094V19.6904H30.0326V20.1094H29.0716V24H28.6322V20.1094H27.6683ZM30.5278 19.6904H30.9585V21.5391H31.269C31.8335 21.5391 32.2388 21.5664 32.4848 21.6211C32.7309 21.6758 32.9292 21.8018 33.0796 21.999C33.23 22.1943 33.3052 22.4473 33.3052 22.7578C33.3052 23.0625 33.2319 23.3154 33.0854 23.5166C32.9389 23.7158 32.7524 23.8467 32.5259 23.9092C32.2993 23.9697 31.9194 24 31.3862 24H30.5278V19.6904ZM30.9585 23.584H31.4184C31.9028 23.584 32.2182 23.5615 32.3647 23.5166C32.5132 23.4697 32.6304 23.3838 32.7163 23.2588C32.8042 23.1338 32.8481 22.9736 32.8481 22.7783C32.8481 22.5635 32.7934 22.3887 32.6841 22.2539C32.5747 22.1191 32.435 22.0371 32.2651 22.0078C32.0971 21.9766 31.7827 21.9609 31.3218 21.9609H30.9585V23.584Z" fill="#1155CC"/>
<g clip-path="url(#clip0_4282_78171)">
<path d="M12.6979 15.7441C12.0196 15.7441 11.3684 15.4634 10.8494 14.9439C9.69867 13.7894 9.69867 11.9117 10.8492 10.7579L19.8222 1.22943C21.2222 -0.172817 23.3667 -0.0468169 24.9317 1.52018C25.6329 2.22268 26.0264 3.23543 26.0117 4.29993C25.9969 5.3532 25.5854 6.36118 24.8821 7.06568L18.1006 14.2852C17.9119 14.4874 17.5954 14.4967 17.3939 14.3069C17.1929 14.1169 17.1832 13.7999 17.3727 13.5984L24.1644 6.36793C24.6957 5.83568 25.0004 5.08067 25.0116 4.28592C25.0229 3.49068 24.7356 2.74092 24.2246 2.22867C23.2646 1.26667 21.7016 0.762917 20.5396 1.92767L11.5669 11.4562C10.7954 12.2297 10.7956 13.4719 11.5569 14.2352C11.9139 14.5924 12.3376 14.7664 12.7889 14.7391C13.2354 14.7119 13.6944 14.4829 14.0814 14.0949L21.2208 6.49589C21.4796 6.23664 21.9996 5.60114 21.4703 5.07064C21.1706 4.77039 20.9601 4.78889 20.8909 4.79464C20.6931 4.81214 20.4621 4.94889 20.2224 5.18939L14.8486 10.9046C14.6589 11.1064 14.3421 11.1161 14.1418 10.9259C13.9406 10.7364 13.9313 10.4189 14.1206 10.2179L19.5041 4.49189C19.9274 4.06664 20.3601 3.83614 20.8006 3.79664C21.1444 3.76612 21.6556 3.83939 22.1771 4.36239C22.9511 5.13787 22.8549 6.27539 21.9384 7.19389L14.7989 14.7924C14.2289 15.3644 13.5406 15.6966 12.8501 15.7391C12.7994 15.7426 12.7486 15.7441 12.6979 15.7441L12.6979 15.7441Z" fill="#1155CC"/>
</g>
<defs>
<clipPath id="clip0_4282_78171">
<rect width="16" height="16" fill="white" transform="translate(10)"/>
</clipPath>
</defs>
</svg>
