<svg width="50" height="50" viewBox="0 0 50 50" fill="none" xmlns="http://www.w3.org/2000/svg">
<path d="M17.8667 23.7333H16.6V26.2667H17.8667V23.7333ZM33.0667 26.2667H34.3333V23.7333H33.0667V26.2667ZM17.8667 16.1333H16.6V18.6667H17.8667V16.1333ZM22.9333 18.6667H24.2V16.1333H22.9333V18.6667ZM33.0667 7.26667L33.9635 6.36987L33.5911 6H33.0667V7.26667ZM40.6667 14.8667H41.9333V14.3423L41.5635 13.9699L40.6667 14.8667V14.8667ZM26.7333 33.8667L25.8365 34.7635L26.7333 33.8667ZM25.4667 35.1333L26.0341 36.2657L26.1355 36.2151L26.2267 36.1467L25.4667 35.1333ZM17.8667 26.2667H33.0667V23.7333H17.8667V26.2667ZM17.8667 18.6667H22.9333V16.1333H17.8667V18.6667ZM38.1333 41.4667H12.8V44H38.1333V41.4667ZM11.5333 40.2V9.8H9V40.2H11.5333ZM12.8 8.53333H33.0667V6H12.8V8.53333ZM39.4 14.8667V40.2H41.9333V14.8667H39.4ZM32.1699 8.16347L39.7699 15.7635L41.5635 13.9699L33.9635 6.36987L32.1699 8.16347V8.16347ZM12.8 41.4667C12.4641 41.4667 12.1419 41.3332 11.9043 41.0957C11.6668 40.8581 11.5333 40.5359 11.5333 40.2H9C9 41.2078 9.40036 42.1744 10.113 42.887C10.8256 43.5996 11.7922 44 12.8 44V41.4667ZM38.1333 44C39.1412 44 40.1077 43.5996 40.8203 42.887C41.533 42.1744 41.9333 41.2078 41.9333 40.2H39.4C39.4 40.5359 39.2665 40.8581 39.029 41.0957C38.7915 41.3332 38.4693 41.4667 38.1333 41.4667V44ZM11.5333 9.8C11.5333 9.46406 11.6668 9.14188 11.9043 8.90433C12.1419 8.66679 12.4641 8.53333 12.8 8.53333V6C11.7922 6 10.8256 6.40036 10.113 7.11299C9.40036 7.82563 9 8.79218 9 9.8H11.5333ZM20.3341 35.5336C20.6153 34.69 21.4159 33.9072 22.4368 33.6336C23.3919 33.3777 24.6205 33.5449 25.8365 34.7635L27.6301 32.9699C25.8061 31.1459 23.6553 30.6823 21.7807 31.1864C19.9744 31.6728 18.4949 33.0433 17.93 34.7331L20.3367 35.5336H20.3341ZM25.8365 34.7635C25.9078 34.8327 25.9747 34.9063 26.0367 34.9839L28.038 33.4284C27.9116 33.2681 27.7754 33.1158 27.6301 32.9724L25.8365 34.7635ZM26.0367 34.9839C26.2343 35.2372 26.1887 35.3183 26.1963 35.2625C26.2013 35.2271 26.2115 35.2853 26.0595 35.4221C25.8404 35.6052 25.5921 35.75 25.3248 35.8503C25.0037 35.9795 24.6688 36.0713 24.3267 36.1239C24.118 36.1636 23.9045 36.1721 23.6933 36.1492C23.6503 36.1391 23.7389 36.1492 23.8707 36.2429C24.0322 36.3676 24.151 36.5394 24.2104 36.7346C24.2699 36.9298 24.2671 37.1387 24.2025 37.3323C24.1882 37.3742 24.1686 37.4142 24.1443 37.4513C24.1392 37.4564 24.1823 37.4007 24.3267 37.2816C24.6155 37.0485 25.1475 36.7091 26.0341 36.2683L24.8992 34.0009C23.9441 34.4772 23.2272 34.9129 22.7357 35.3107C22.4865 35.5052 22.2649 35.7328 22.0771 35.9871C21.8382 36.3069 21.7133 36.6976 21.7224 37.0967C21.7477 37.6439 22.0441 38.0467 22.3684 38.2823C22.6547 38.4951 22.9713 38.5863 23.2044 38.6344C23.6781 38.7281 24.2177 38.7028 24.7067 38.6293C25.6693 38.4824 26.9157 38.0669 27.7644 37.2968C28.2052 36.894 28.6232 36.3164 28.7119 35.5589C28.8031 34.7837 28.5244 34.0567 28.0355 33.4309L26.0341 34.9839H26.0367ZM26.2267 36.1467C26.632 35.8367 27.0724 35.5757 27.5389 35.3689L26.5332 33.0433C25.9252 33.3068 25.3172 33.664 24.7067 34.12L26.2267 36.1467V36.1467ZM27.5389 35.3689C29.1856 34.6571 30.6575 35.032 32.1648 35.7489C32.5448 35.9313 32.9147 36.1289 33.2896 36.3316C33.6544 36.5292 34.0395 36.7395 34.4043 36.9269C35.1035 37.2791 35.9699 37.6667 36.8667 37.6667V35.1333C36.6285 35.1333 36.2384 35.0143 35.5493 34.6672C35.2251 34.5 34.8856 34.3125 34.4955 34.1023C34.1155 33.8971 33.6949 33.6716 33.2541 33.4639C31.4859 32.6203 29.1729 31.9033 26.5332 33.0433L27.5389 35.3689V35.3689Z" fill="black"/>
</svg>
