<svg width="50" height="50" viewBox="0 0 50 50" fill="none" xmlns="http://www.w3.org/2000/svg">
<g clip-path="url(#clip0_2053_116121)">
<path d="M15.0007 23.3333H13.334V26.6667H15.0007V23.3333ZM35.0007 26.6667H36.6673V23.3333H35.0007V26.6667ZM15.0007 13.3333H13.334V16.6667H15.0007V13.3333ZM21.6673 16.6667H23.334V13.3333H21.6673V16.6667ZM35.0007 1.66667L36.1806 0.486667L35.6907 0H35.0007V1.66667ZM45.0006 11.6667H46.6673V10.9767L46.1806 10.4867L45.0006 11.6667ZM26.6673 36.6667L25.4873 37.8467L26.6673 36.6667ZM25.0007 38.3333L25.7473 39.8233L25.8806 39.7567L26.0007 39.6667L25.0007 38.3333ZM15.0007 26.6667H35.0007V23.3333H15.0007V26.6667ZM15.0007 16.6667H21.6673V13.3333H15.0007V16.6667ZM41.6673 46.6667H8.33398V50H41.6673V46.6667ZM6.66732 45V5H3.33398V45H6.66732ZM8.33398 3.33333H35.0007V0H8.33398V3.33333ZM43.334 11.6667V45H46.6673V11.6667H43.334ZM33.8207 2.84667L43.8206 12.8467L46.1806 10.4867L36.1806 0.486667L33.8207 2.84667ZM8.33398 46.6667C7.89196 46.6667 7.46803 46.4911 7.15547 46.1785C6.84291 45.866 6.66732 45.442 6.66732 45H3.33398C3.33398 46.3261 3.86077 47.5979 4.79845 48.5355C5.73613 49.4732 7.0079 50 8.33398 50V46.6667ZM41.6673 50C42.9934 50 44.2652 49.4732 45.2029 48.5355C46.1405 47.5979 46.6673 46.3261 46.6673 45H43.334C43.334 45.442 43.1584 45.866 42.8458 46.1785C42.5333 46.4911 42.1093 46.6667 41.6673 46.6667V50ZM6.66732 5C6.66732 4.55797 6.84291 4.13405 7.15547 3.82149C7.46803 3.50893 7.89196 3.33333 8.33398 3.33333V0C7.0079 0 5.73613 0.526784 4.79845 1.46447C3.86077 2.40215 3.33398 3.67392 3.33398 5H6.66732ZM18.2473 38.86C18.6173 37.75 19.6707 36.72 21.014 36.36C22.2707 36.0233 23.8873 36.2433 25.4873 37.8467L27.8473 35.4867C25.4473 33.0867 22.6173 32.4767 20.1507 33.14C17.774 33.78 15.8273 35.5833 15.084 37.8067L18.2507 38.86H18.2473ZM25.4873 37.8467C25.5811 37.9377 25.6691 38.0346 25.7507 38.1367L28.384 36.09C28.2177 35.8791 28.0385 35.6787 27.8473 35.49L25.4873 37.8467ZM25.7507 38.1367C26.0107 38.47 25.9507 38.5767 25.9607 38.5033C25.9673 38.4567 25.9807 38.5333 25.7807 38.7133C25.4925 38.9542 25.1656 39.1447 24.814 39.2767C24.3915 39.4466 23.9508 39.5674 23.5007 39.6367C23.226 39.6889 22.9452 39.7002 22.6673 39.67C22.6107 39.6567 22.7273 39.67 22.9007 39.7933C23.1132 39.9574 23.2694 40.1835 23.3477 40.4403C23.4259 40.6972 23.4223 40.972 23.3373 41.2267C23.3184 41.2819 23.2927 41.3345 23.2607 41.3833C23.254 41.39 23.3107 41.3167 23.5007 41.16C23.8807 40.8533 24.5807 40.4067 25.7473 39.8267L24.254 36.8433C22.9973 37.47 22.054 38.0433 21.4073 38.5667C21.0794 38.8226 20.7878 39.122 20.5407 39.4567C20.2263 39.8775 20.062 40.3915 20.074 40.9167C20.1073 41.6367 20.4973 42.1667 20.924 42.4767C21.3006 42.7567 21.7173 42.8767 22.024 42.94C22.6473 43.0633 23.3573 43.03 24.0007 42.9333C25.2673 42.74 26.9073 42.1933 28.024 41.18C28.604 40.65 29.154 39.89 29.2707 38.8933C29.3907 37.8733 29.024 36.9167 28.3806 36.0933L25.7473 38.1367H25.7507ZM26.0007 39.6667C26.5339 39.2588 27.1135 38.9153 27.7273 38.6433L26.404 35.5833C25.604 35.93 24.804 36.4 24.0007 37L26.0007 39.6667ZM27.7273 38.6433C29.894 37.7067 31.8307 38.2 33.814 39.1433C34.314 39.3833 34.8007 39.6433 35.294 39.91C35.774 40.17 36.2807 40.4467 36.7607 40.6933C37.6806 41.1567 38.8207 41.6667 40.0006 41.6667V38.3333C39.6873 38.3333 39.174 38.1767 38.2673 37.72C37.8406 37.5 37.394 37.2533 36.8806 36.9767C36.3806 36.7067 35.8273 36.41 35.2473 36.1367C32.9207 35.0267 29.8773 34.0833 26.404 35.5833L27.7273 38.6433Z" fill="black"/>
</g>
<defs>
<clipPath id="clip0_2053_116121">
<rect width="50" height="50" fill="white"/>
</clipPath>
</defs>
</svg>
