<svg width="20" height="20" viewBox="0 0 20 20" fill="none" xmlns="http://www.w3.org/2000/svg">
<g clip-path="url(#clip0_4374_119210)">
<path d="M18 0C18.5304 0 19.0391 0.210714 19.4142 0.585786C19.7893 0.960859 20 1.46957 20 2V14C20 14.5304 19.7893 15.0391 19.4142 15.4142C19.0391 15.7893 18.5304 16 18 16H15V18C15 18.5304 14.7893 19.0391 14.4142 19.4142C14.0391 19.7893 13.5304 20 13 20H2C1.46957 20 0.960859 19.7893 0.585786 19.4142C0.210714 19.0391 0 18.5304 0 18V7C0 6.46957 0.210714 5.96086 0.585786 5.58579C0.960859 5.21071 1.46957 5 2 5H4V2C4 1.46957 4.21071 0.960859 4.58579 0.585786C4.96086 0.210714 5.46957 0 6 0H18ZM4 7H2V18H13V16H6C5.46957 16 4.96086 15.7893 4.58579 15.4142C4.21071 15.0391 4 14.5304 4 14V7ZM18 2H6V14H18V2ZM15.89 5.233C16.0775 5.42053 16.1828 5.67484 16.1828 5.94C16.1828 6.20516 16.0775 6.45947 15.89 6.647L11.717 10.819C11.6148 10.9212 11.4936 11.0023 11.3601 11.0576C11.2266 11.1129 11.0835 11.1414 10.939 11.1414C10.7945 11.1414 10.6514 11.1129 10.5179 11.0576C10.3844 11.0023 10.2632 10.9212 10.161 10.819L8.111 8.769C7.92336 8.58149 7.81789 8.32712 7.8178 8.06185C7.8177 7.79658 7.92299 7.54214 8.1105 7.3545C8.29801 7.16686 8.55238 7.06139 8.81765 7.0613C9.08292 7.0612 9.33736 7.16649 9.525 7.354L10.939 8.768L14.475 5.233C14.6625 5.04553 14.9168 4.94021 15.182 4.94021C15.4472 4.94021 15.7025 5.04553 15.89 5.233Z" fill="#787878"/>
</g>
<defs>
<clipPath id="clip0_4374_119210">
<rect width="20" height="20" fill="white"/>
</clipPath>
</defs>
</svg>
