<svg width="20" height="20" viewBox="0 0 20 20" fill="none" xmlns="http://www.w3.org/2000/svg">
<g clip-path="url(#clip0_4374_119206)">
<path fill-rule="evenodd" clip-rule="evenodd" d="M18 0C18.5304 0 19.0391 0.210714 19.4142 0.585786C19.7893 0.960859 20 1.46957 20 2V14C20 14.5304 19.7893 15.0391 19.4142 15.4142C19.0391 15.7893 18.5304 16 18 16H15V18C15 18.5304 14.7893 19.0391 14.4142 19.4142C14.0391 19.7893 13.5304 20 13 20H2C1.46957 20 0.960859 19.7893 0.585786 19.4142C0.210714 19.0391 0 18.5304 0 18V7C0 6.46957 0.210714 5.96086 0.585786 5.58579C0.960859 5.21071 1.46957 5 2 5H4V2C4 1.46957 4.21071 0.960859 4.58579 0.585786C4.96086 0.210714 5.46957 0 6 0H18ZM4 7H2V18H13V16H6C5.46957 16 4.96086 15.7893 4.58579 15.4142C4.21071 15.0391 4 14.5304 4 14V7ZM15.89 5.232C15.7178 5.05982 15.4887 4.95639 15.2457 4.94111C15.0027 4.92583 14.7624 4.99975 14.57 5.149L14.475 5.232L10.939 8.768L9.525 7.354C9.34504 7.17465 9.10357 7.07053 8.84962 7.06277C8.59567 7.05502 8.34829 7.14422 8.15772 7.31225C7.96716 7.48028 7.84769 7.71455 7.8236 7.96747C7.79951 8.2204 7.87259 8.47301 8.028 8.674L8.111 8.768L10.161 10.818C10.3515 11.0088 10.6055 11.1229 10.8746 11.1388C11.1438 11.1546 11.4094 11.0711 11.621 10.904L11.717 10.819L15.889 6.647C15.982 6.55413 16.0557 6.44384 16.1061 6.32244C16.1564 6.20104 16.1823 6.07092 16.1823 5.9395C16.1823 5.80808 16.1564 5.67796 16.1061 5.55656C16.0557 5.43516 15.983 5.32487 15.89 5.232Z" fill="black"/>
</g>
<defs>
<clipPath id="clip0_4374_119206">
<rect width="20" height="20" fill="white"/>
</clipPath>
</defs>
</svg>
