<svg width="44" height="50" viewBox="0 0 44 50" fill="none" xmlns="http://www.w3.org/2000/svg">
<path d="M12.0007 23.3333H10.334V26.6667H12.0007V23.3333ZM32.0007 26.6667H33.6673V23.3333H32.0007V26.6667ZM12.0007 13.3333H10.334V16.6667H12.0007V13.3333ZM18.6673 16.6667H20.334V13.3333H18.6673V16.6667ZM32.0007 1.66667L33.1806 0.486667L32.6907 0H32.0007V1.66667ZM42.0006 11.6667H43.6673V10.9767L43.1806 10.4867L42.0006 11.6667ZM23.6673 36.6667L22.4873 37.8467L23.6673 36.6667ZM22.0007 38.3333L22.7473 39.8233L22.8806 39.7567L23.0007 39.6667L22.0007 38.3333ZM12.0007 26.6667H32.0007V23.3333H12.0007V26.6667ZM12.0007 16.6667H18.6673V13.3333H12.0007V16.6667ZM38.6673 46.6667H5.33398V50H38.6673V46.6667ZM3.66732 45V5H0.333984V45H3.66732ZM5.33398 3.33333H32.0007V0H5.33398V3.33333ZM40.334 11.6667V45H43.6673V11.6667H40.334ZM30.8207 2.84667L40.8206 12.8467L43.1806 10.4867L33.1806 0.486667L30.8207 2.84667ZM5.33398 46.6667C4.89196 46.6667 4.46803 46.4911 4.15547 46.1785C3.84291 45.866 3.66732 45.442 3.66732 45H0.333984C0.333984 46.3261 0.860769 47.5979 1.79845 48.5355C2.73613 49.4732 4.0079 50 5.33398 50V46.6667ZM38.6673 50C39.9934 50 41.2652 49.4732 42.2029 48.5355C43.1405 47.5979 43.6673 46.3261 43.6673 45H40.334C40.334 45.442 40.1584 45.866 39.8458 46.1785C39.5333 46.4911 39.1093 46.6667 38.6673 46.6667V50ZM3.66732 5C3.66732 4.55797 3.84291 4.13405 4.15547 3.82149C4.46803 3.50893 4.89196 3.33333 5.33398 3.33333V0C4.0079 0 2.73613 0.526784 1.79845 1.46447C0.860769 2.40215 0.333984 3.67392 0.333984 5H3.66732ZM15.2473 38.86C15.6173 37.75 16.6707 36.72 18.014 36.36C19.2707 36.0233 20.8873 36.2433 22.4873 37.8467L24.8473 35.4867C22.4473 33.0867 19.6173 32.4767 17.1507 33.14C14.774 33.78 12.8273 35.5833 12.084 37.8067L15.2507 38.86H15.2473ZM22.4873 37.8467C22.5811 37.9377 22.6691 38.0346 22.7507 38.1367L25.384 36.09C25.2177 35.8791 25.0385 35.6787 24.8473 35.49L22.4873 37.8467ZM22.7507 38.1367C23.0107 38.47 22.9507 38.5767 22.9607 38.5033C22.9673 38.4567 22.9807 38.5333 22.7807 38.7133C22.4925 38.9542 22.1656 39.1447 21.814 39.2767C21.3915 39.4466 20.9508 39.5674 20.5007 39.6367C20.226 39.6889 19.9452 39.7002 19.6673 39.67C19.6107 39.6567 19.7273 39.67 19.9007 39.7933C20.1132 39.9574 20.2694 40.1835 20.3477 40.4403C20.4259 40.6972 20.4223 40.972 20.3373 41.2267C20.3184 41.2819 20.2927 41.3345 20.2607 41.3833C20.254 41.39 20.3107 41.3167 20.5007 41.16C20.8807 40.8533 21.5807 40.4067 22.7473 39.8267L21.254 36.8433C19.9973 37.47 19.054 38.0433 18.4073 38.5667C18.0794 38.8226 17.7878 39.122 17.5407 39.4567C17.2263 39.8775 17.062 40.3915 17.074 40.9167C17.1073 41.6367 17.4973 42.1667 17.924 42.4767C18.3006 42.7567 18.7173 42.8767 19.024 42.94C19.6473 43.0633 20.3573 43.03 21.0007 42.9333C22.2673 42.74 23.9073 42.1933 25.024 41.18C25.604 40.65 26.154 39.89 26.2707 38.8933C26.3907 37.8733 26.024 36.9167 25.3806 36.0933L22.7473 38.1367H22.7507ZM23.0007 39.6667C23.5339 39.2588 24.1135 38.9153 24.7273 38.6433L23.404 35.5833C22.604 35.93 21.804 36.4 21.0007 37L23.0007 39.6667ZM24.7273 38.6433C26.894 37.7067 28.8307 38.2 30.814 39.1433C31.314 39.3833 31.8007 39.6433 32.294 39.91C32.774 40.17 33.2807 40.4467 33.7607 40.6933C34.6806 41.1567 35.8207 41.6667 37.0006 41.6667V38.3333C36.6873 38.3333 36.174 38.1767 35.2673 37.72C34.8406 37.5 34.394 37.2533 33.8806 36.9767C33.3806 36.7067 32.8273 36.41 32.2473 36.1367C29.9207 35.0267 26.8773 34.0833 23.404 35.5833L24.7273 38.6433Z" fill="black"/>
</svg>
