<svg width="22" height="22" viewBox="0 0 22 22" fill="none" xmlns="http://www.w3.org/2000/svg">
<path d="M10.0002 1V13C10.0002 16.31 9.31024 17 6.00024 17H2.00024M4.00024 11H10.0002M16.5002 15H17.5002M16.5002 18H17.5002" stroke="black" stroke-width="1.25" stroke-linecap="round" stroke-linejoin="round"/>
<path d="M13.0003 21V4C13.0003 2.585 13.0003 1.878 12.5793 1.44C12.1593 1 11.4813 1 10.1273 1H9.48427C8.51027 1 8.02227 1 7.65027 1.271C7.27927 1.544 7.11327 2.023 6.78227 2.98L1.47827 18.321C1.05627 19.54 0.845268 20.149 1.13127 20.575C1.41727 21 2.03827 21 3.27927 21H13.0003ZM13.0003 21H19.0003C19.9433 21 20.4143 21 20.7073 20.707C21.0003 20.414 21.0003 19.943 21.0003 19V15.91C21.0003 13.785 21.0003 12.722 20.4173 11.929C19.8343 11.136 18.8203 10.819 16.7903 10.184L13.0003 9" stroke="black" stroke-width="1.25" stroke-linecap="round" stroke-linejoin="round"/>
</svg>
