<svg width="46" height="46" viewBox="0 0 46 46" fill="none" xmlns="http://www.w3.org/2000/svg">
<path d="M23 0.5C10.5733 0.5 0.5 10.5733 0.5 23C0.5 35.4268 10.5733 45.5 23 45.5C35.4268 45.5 45.5 35.4268 45.5 23C45.5 10.5733 35.4268 0.5 23 0.5ZM38.5655 14H31.3318C30.9955 11.4683 30.5714 8.94905 30.0605 6.44675C33.6332 7.9856 36.6154 10.6341 38.5655 14ZM25.2815 5.162C25.4345 5.954 26.1523 9.7475 26.7327 14H19.2673C19.8477 9.7475 20.5655 5.954 20.7185 5.162C21.4678 5.06525 22.226 5 23 5C23.774 5 24.5322 5.06525 25.2815 5.162ZM27.5 23C27.5 24.3455 27.4032 25.8935 27.2547 27.5H18.7453C18.5968 25.8935 18.5 24.3455 18.5 23C18.5 21.6545 18.5968 20.1065 18.7453 18.5H27.2547C27.4032 20.1065 27.5 21.6545 27.5 23ZM15.9395 6.44675C15.4286 8.94905 15.0045 11.4683 14.6683 14H7.4345C9.3846 10.6341 12.3668 7.9856 15.9395 6.44675ZM5.59175 18.5H14.189C14.0742 20.003 14 21.524 14 23C14 24.476 14.0743 25.997 14.1912 27.5H5.59175C5.21825 26.0578 5 24.557 5 23C5 21.443 5.2205 19.9422 5.59175 18.5ZM7.4345 32H14.6683C15.0912 35.204 15.6133 37.9625 15.9395 39.5532C12.3668 38.0144 9.3846 35.3659 7.4345 32ZM20.7185 40.838C20.1589 37.9049 19.675 34.958 19.2673 32H26.7327C26.324 34.9578 25.8401 37.9048 25.2815 40.838C24.5322 40.9347 23.774 41 23 41C22.226 41 21.4678 40.9347 20.7185 40.838ZM30.0605 39.5532C30.3867 37.9625 30.9088 35.204 31.3318 32H38.5655C36.6154 35.3659 33.6332 38.0144 30.0605 39.5532ZM40.4082 27.5H31.811C31.9258 25.997 32 24.476 32 23C32 21.524 31.9258 20.003 31.8088 18.5H40.406C40.7795 19.9422 41 21.443 41 23C41 24.557 40.7817 26.0578 40.4082 27.5Z" fill="black"/>
</svg>
